<?xml version="1.0" encoding="UTF-8"?>
<!--
  hermes-lyra logo mark — retro pixel-art style, matching the
  "HERMES-AGENT" wordmark aesthetic. Strict pixel grid, two-tone
  vertical fill, 1-pixel-gap brown wireframe outline. No curves,
  no anti-aliasing.
-->
<svg xmlns="http://www.w3.org/2000/svg"
     viewBox="0 0 192 192"
     width="192" height="192"
     shape-rendering="crispEdges">
  <rect width="192" height="192" fill="#000000"/>
  <rect x="0" y="48" width="12" height="12" fill="#884400"/>
  <rect x="0" y="60" width="12" height="12" fill="#884400"/>
  <rect x="0" y="72" width="12" height="12" fill="#884400"/>
  <rect x="0" y="84" width="12" height="12" fill="#884400"/>
  <rect x="12" y="12" width="12" height="12" fill="#884400"/>
  <rect x="12" y="24" width="12" height="12" fill="#884400"/>
  <rect x="12" y="36" width="12" height="12" fill="#884400"/>
  <rect x="12" y="96" width="12" height="12" fill="#884400"/>
  <rect x="12" y="108" width="12" height="12" fill="#884400"/>
  <rect x="24" y="0" width="12" height="12" fill="#884400"/>
  <rect x="24" y="120" width="12" height="12" fill="#884400"/>
  <rect x="24" y="132" width="12" height="12" fill="#884400"/>
  <rect x="36" y="144" width="12" height="12" fill="#884400"/>
  <rect x="48" y="0" width="12" height="12" fill="#884400"/>
  <rect x="48" y="48" width="12" height="12" fill="#884400"/>
  <rect x="48" y="60" width="12" height="12" fill="#884400"/>
  <rect x="48" y="72" width="12" height="12" fill="#884400"/>
  <rect x="48" y="84" width="12" height="12" fill="#884400"/>
  <rect x="48" y="156" width="12" height="12" fill="#884400"/>
  <rect x="60" y="0" width="12" height="12" fill="#884400"/>
  <rect x="60" y="168" width="12" height="12" fill="#884400"/>
  <rect x="72" y="0" width="12" height="12" fill="#884400"/>
  <rect x="72" y="180" width="12" height="12" fill="#884400"/>
  <rect x="84" y="0" width="12" height="12" fill="#884400"/>
  <rect x="84" y="180" width="12" height="12" fill="#884400"/>
  <rect x="96" y="0" width="12" height="12" fill="#884400"/>
  <rect x="96" y="180" width="12" height="12" fill="#884400"/>
  <rect x="108" y="0" width="12" height="12" fill="#884400"/>
  <rect x="108" y="180" width="12" height="12" fill="#884400"/>
  <rect x="120" y="0" width="12" height="12" fill="#884400"/>
  <rect x="120" y="168" width="12" height="12" fill="#884400"/>
  <rect x="132" y="0" width="12" height="12" fill="#884400"/>
  <rect x="132" y="156" width="12" height="12" fill="#884400"/>
  <rect x="144" y="144" width="12" height="12" fill="#884400"/>
  <rect x="156" y="0" width="12" height="12" fill="#884400"/>
  <rect x="156" y="120" width="12" height="12" fill="#884400"/>
  <rect x="156" y="132" width="12" height="12" fill="#884400"/>
  <rect x="168" y="12" width="12" height="12" fill="#884400"/>
  <rect x="168" y="24" width="12" height="12" fill="#884400"/>
  <rect x="168" y="36" width="12" height="12" fill="#884400"/>
  <rect x="168" y="96" width="12" height="12" fill="#884400"/>
  <rect x="168" y="108" width="12" height="12" fill="#884400"/>
  <rect x="180" y="48" width="12" height="12" fill="#884400"/>
  <rect x="180" y="60" width="12" height="12" fill="#884400"/>
  <rect x="180" y="72" width="12" height="12" fill="#884400"/>
  <rect x="180" y="84" width="12" height="12" fill="#884400"/>
  <rect x="24" y="48" width="12" height="12" fill="#FFCC00"/>
  <rect x="24" y="60" width="12" height="12" fill="#FFCC00"/>
  <rect x="24" y="72" width="12" height="12" fill="#FFCC00"/>
  <rect x="24" y="84" width="12" height="12" fill="#FFCC00"/>
  <rect x="36" y="12" width="12" height="12" fill="#FFCC00"/>
  <rect x="36" y="24" width="12" height="12" fill="#FFCC00"/>
  <rect x="36" y="36" width="12" height="12" fill="#FFCC00"/>
  <rect x="36" y="96" width="12" height="12" fill="#FFCC00"/>
  <rect x="36" y="108" width="12" height="12" fill="#CC7722"/>
  <rect x="48" y="24" width="12" height="12" fill="#FFCC00"/>
  <rect x="48" y="120" width="12" height="12" fill="#CC7722"/>
  <rect x="48" y="132" width="12" height="12" fill="#CC7722"/>
  <rect x="60" y="24" width="12" height="12" fill="#FFCC00"/>
  <rect x="60" y="144" width="12" height="12" fill="#CC7722"/>
  <rect x="72" y="24" width="12" height="12" fill="#FFCC00"/>
  <rect x="72" y="36" width="12" height="12" fill="#FFCC00"/>
  <rect x="72" y="48" width="12" height="12" fill="#FFCC00"/>
  <rect x="72" y="60" width="12" height="12" fill="#FFCC00"/>
  <rect x="72" y="72" width="12" height="12" fill="#FFCC00"/>
  <rect x="72" y="84" width="12" height="12" fill="#FFCC00"/>
  <rect x="72" y="96" width="12" height="12" fill="#FFCC00"/>
  <rect x="72" y="108" width="12" height="12" fill="#CC7722"/>
  <rect x="72" y="120" width="12" height="12" fill="#CC7722"/>
  <rect x="72" y="132" width="12" height="12" fill="#CC7722"/>
  <rect x="72" y="144" width="12" height="12" fill="#CC7722"/>
  <rect x="72" y="156" width="12" height="12" fill="#CC7722"/>
  <rect x="84" y="24" width="12" height="12" fill="#FFCC00"/>
  <rect x="84" y="144" width="12" height="12" fill="#CC7722"/>
  <rect x="84" y="156" width="12" height="12" fill="#CC7722"/>
  <rect x="96" y="24" width="12" height="12" fill="#FFCC00"/>
  <rect x="96" y="36" width="12" height="12" fill="#FFCC00"/>
  <rect x="96" y="48" width="12" height="12" fill="#FFCC00"/>
  <rect x="96" y="60" width="12" height="12" fill="#FFCC00"/>
  <rect x="96" y="72" width="12" height="12" fill="#FFCC00"/>
  <rect x="96" y="84" width="12" height="12" fill="#FFCC00"/>
  <rect x="96" y="96" width="12" height="12" fill="#FFCC00"/>
  <rect x="96" y="108" width="12" height="12" fill="#CC7722"/>
  <rect x="96" y="120" width="12" height="12" fill="#CC7722"/>
  <rect x="96" y="132" width="12" height="12" fill="#CC7722"/>
  <rect x="96" y="144" width="12" height="12" fill="#CC7722"/>
  <rect x="96" y="156" width="12" height="12" fill="#CC7722"/>
  <rect x="108" y="24" width="12" height="12" fill="#FFCC00"/>
  <rect x="108" y="144" width="12" height="12" fill="#CC7722"/>
  <rect x="108" y="156" width="12" height="12" fill="#CC7722"/>
  <rect x="120" y="24" width="12" height="12" fill="#FFCC00"/>
  <rect x="120" y="36" width="12" height="12" fill="#FFCC00"/>
  <rect x="120" y="48" width="12" height="12" fill="#FFCC00"/>
  <rect x="120" y="60" width="12" height="12" fill="#FFCC00"/>
  <rect x="120" y="72" width="12" height="12" fill="#FFCC00"/>
  <rect x="120" y="84" width="12" height="12" fill="#FFCC00"/>
  <rect x="120" y="96" width="12" height="12" fill="#FFCC00"/>
  <rect x="120" y="108" width="12" height="12" fill="#CC7722"/>
  <rect x="120" y="120" width="12" height="12" fill="#CC7722"/>
  <rect x="120" y="132" width="12" height="12" fill="#CC7722"/>
  <rect x="120" y="144" width="12" height="12" fill="#CC7722"/>
  <rect x="132" y="24" width="12" height="12" fill="#FFCC00"/>
  <rect x="132" y="120" width="12" height="12" fill="#CC7722"/>
  <rect x="132" y="132" width="12" height="12" fill="#CC7722"/>
  <rect x="144" y="12" width="12" height="12" fill="#FFCC00"/>
  <rect x="144" y="24" width="12" height="12" fill="#FFCC00"/>
  <rect x="144" y="36" width="12" height="12" fill="#FFCC00"/>
  <rect x="144" y="96" width="12" height="12" fill="#FFCC00"/>
  <rect x="144" y="108" width="12" height="12" fill="#CC7722"/>
  <rect x="156" y="48" width="12" height="12" fill="#FFCC00"/>
  <rect x="156" y="60" width="12" height="12" fill="#FFCC00"/>
  <rect x="156" y="72" width="12" height="12" fill="#FFCC00"/>
  <rect x="156" y="84" width="12" height="12" fill="#FFCC00"/>
</svg>
